<svg xmlns="http://www.w3.org/2000/svg" xmlns:xlink="http://www.w3.org/1999/xlink" width="400" zoomAndPan="magnify" viewBox="0 0 300 374.999991" height="500" preserveAspectRatio="xMidYMid meet" version="1.0"><defs><clipPath id="3b235a1f8a"><path d="M 3.515625 0 L 296.484375 0 L 296.484375 375 L 3.515625 375 Z M 3.515625 0 " clip-rule="nonzero"/></clipPath><clipPath id="d475425790"><path d="M 3.515625 11 L 253 11 L 253 363 L 3.515625 363 Z M 3.515625 11 " clip-rule="nonzero"/></clipPath><clipPath id="147dc84d76"><path d="M 3.515625 21 L 176 21 L 176 130 L 3.515625 130 Z M 3.515625 21 " clip-rule="nonzero"/></clipPath><clipPath id="4d0cf9f5b0"><path d="M 3.515625 102 L 68 102 L 68 123 L 3.515625 123 Z M 3.515625 102 " clip-rule="nonzero"/></clipPath><clipPath id="f09c184d1f"><path d="M 200.871094 36 L 203.554688 36 L 203.554688 44.523438 L 200.871094 44.523438 Z M 200.871094 36 " clip-rule="nonzero"/></clipPath><clipPath id="592de0eba8"><path d="M 202.351562 36.042969 C 203.011719 37.027344 203.398438 38.214844 203.398438 39.488281 C 203.398438 41.507812 202.433594 43.296875 200.941406 44.425781 L 202.351562 36.042969 " clip-rule="nonzero"/></clipPath></defs><g clip-path="url(#3b235a1f8a)"><path fill="#4a9bdb" d="M 296.46875 126.886719 L 276.40625 250.410156 L 251.578125 303.417969 L 149.394531 374.976562 L 66.292969 374.976562 L 57.707031 362.335938 L 48.136719 348.265625 L 28.078125 286.234375 L 10.90625 196.539062 L 15.675781 150.738281 L 3.25 110.683594 L 28.078125 21.941406 L 73.925781 29.566406 L 169.457031 25.757812 L 206.433594 11.714844 L 237.269531 -0.00390625 L 259.238281 29.566406 L 296.46875 126.886719 " fill-opacity="1" fill-rule="nonzero"/></g><g clip-path="url(#d475425790)"><path fill="#62cce5" d="M 252.53125 226.140625 L 175.175781 284.578125 L 133.152344 285.769531 L 75.007812 319.054688 L 89.214844 349.699219 L 57.707031 362.335938 L 48.140625 348.265625 L 28.078125 286.234375 L 10.910156 196.539062 L 15.679688 150.738281 L 3.25 110.683594 L 28.078125 21.941406 L 73.925781 29.570312 L 169.457031 25.757812 L 206.433594 11.714844 L 191.425781 101.128906 L 211.457031 160.773438 L 252.53125 226.140625 " fill-opacity="1" fill-rule="nonzero"/></g><path fill="#4a9bdb" d="M 80.859375 251.417969 L 133.152344 285.769531 L 50.949219 273.007812 L 80.859375 251.417969 " fill-opacity="1" fill-rule="nonzero"/><path fill="#4a9bdb" d="M 62.957031 164.78125 L 24.742188 236.628906 L 75.605469 256.667969 L 62.957031 164.78125 " fill-opacity="1" fill-rule="nonzero"/><path fill="#4a9bdb" d="M 52.5625 228.28125 L 75.605469 256.667969 L 112.613281 226.132812 L 90.886719 217.785156 L 52.5625 228.28125 " fill-opacity="1" fill-rule="nonzero"/><path fill="#8edaf1" d="M 94.707031 275.035156 L 71.304688 259.289062 L 50.949219 273.007812 L 64.261719 282.90625 L 94.707031 275.035156 " fill-opacity="1" fill-rule="nonzero"/><g clip-path="url(#147dc84d76)"><path fill="#8edaf1" d="M 175.175781 103.042969 L 169.457031 25.757812 L 73.925781 29.570312 L 28.078125 21.945312 L 3.253906 110.675781 L 94.351562 129.042969 L 175.175781 103.042969 " fill-opacity="1" fill-rule="nonzero"/></g><path fill="#2c66a6" d="M 19.015625 106.859375 L 4.289062 114.015625 L 15.671875 150.753906 L 12.886719 177.476562 L 31.429688 181.285156 L 62.144531 166.839844 L 75.609375 132.859375 L 67.84375 112.226562 L 19.015625 106.859375 " fill-opacity="1" fill-rule="nonzero"/><path fill="#4a9bdb" d="M 61.175781 122.214844 L 71.867188 142.292969 L 75.605469 132.859375 L 67.84375 112.226562 L 61.175781 122.214844 " fill-opacity="1" fill-rule="nonzero"/><path fill="#4a9bdb" d="M 114.046875 114.011719 L 110.230469 110.671875 L 96.617188 140.015625 L 68.390625 203.011719 L 96.710938 222.316406 L 119.777344 151.707031 L 125.03125 128.804688 L 114.046875 114.011719 " fill-opacity="1" fill-rule="nonzero"/><path fill="#2c66a6" d="M 119.777344 114.011719 L 110.230469 110.671875 L 119.777344 137.871094 L 119.777344 151.707031 L 167.535156 181.285156 L 211.46875 160.769531 L 224.84375 126.894531 L 190.457031 106.859375 L 119.777344 114.011719 " fill-opacity="1" fill-rule="nonzero"/><path fill="#16344f" d="M 110.226562 110.671875 L 116.914062 121.410156 L 188.546875 110.671875 L 224.839844 126.894531 L 191.414062 101.132812 L 110.226562 110.671875 " fill-opacity="1" fill-rule="nonzero"/><g clip-path="url(#4d0cf9f5b0)"><path fill="#16344f" d="M 67.84375 112.222656 L 18.777344 102.921875 L 3.253906 110.675781 L 4.289062 114.015625 L 18.417969 110.078125 L 61.175781 122.214844 L 67.84375 112.222656 " fill-opacity="1" fill-rule="nonzero"/></g><path fill="#8edaf1" d="M 70.085938 118.183594 L 75.605469 132.859375 L 44.324219 211.820312 L 84.441406 207.523438 L 74.171875 190.113281 L 105.691406 120.453125 L 87.304688 116.160156 L 70.085938 118.183594 " fill-opacity="1" fill-rule="nonzero"/><path fill="#8edaf1" d="M 41.21875 290.300781 C 41.9375 290.539062 60.324219 304.378906 60.324219 304.378906 L 95.660156 304.378906 L 134.390625 286 L 93.035156 281.117188 L 49.578125 284.578125 L 34.800781 286.753906 L 41.21875 290.300781 " fill-opacity="1" fill-rule="nonzero"/><path fill="#16344f" d="M 50.949219 273.007812 C 51.902344 273.007812 70.589844 277.183594 70.589844 277.183594 L 89.214844 271.222656 L 133.152344 285.769531 L 95.421875 288.632812 L 68.441406 288.632812 L 34.296875 286.722656 L 50.949219 273.007812 " fill-opacity="1" fill-rule="nonzero"/><path fill="#4a9bdb" d="M 61.277344 310.578125 L 93.035156 310.578125 L 75.007812 319.054688 Z M 61.277344 310.578125 " fill-opacity="1" fill-rule="nonzero"/><path fill="#2c66a6" d="M 149.386719 374.988281 L 109.035156 349.699219 L 58.890625 351.132812 L 50.929688 352.371094 L 66.292969 374.988281 L 149.386719 374.988281 " fill-opacity="1" fill-rule="nonzero"/><path fill="#16344f" d="M 175.175781 284.578125 L 200.964844 238.058594 L 252.539062 226.132812 Z M 175.175781 284.578125 " fill-opacity="1" fill-rule="nonzero"/><path fill="#16344f" d="M 79.980469 208.003906 L 102.109375 211.820312 L 112.613281 226.132812 L 82.148438 226.132812 L 64.847656 230.5 L 52.5625 228.28125 L 44.324219 211.820312 L 79.980469 208.003906 " fill-opacity="1" fill-rule="nonzero"/><path fill="#4a9bdb" d="M 135.011719 151.117188 L 174.054688 158.394531 L 187.757812 148.140625 C 187.757812 148.140625 168.542969 135.289062 167.714844 135.238281 C 166.882812 135.1875 132.933594 138.117188 132.933594 138.117188 L 135.011719 151.117188 " fill-opacity="1" fill-rule="nonzero"/><path fill="#4a9bdb" d="M 25.152344 149.671875 L 56.203125 151.667969 C 56.203125 151.667969 50.386719 135.238281 49.667969 135.238281 C 48.953125 135.238281 21.855469 138.15625 21.855469 138.15625 L 19.585938 145.65625 L 25.152344 149.671875 " fill-opacity="1" fill-rule="nonzero"/><path fill="#8edaf1" d="M 62.140625 166.839844 L 12.882812 177.472656 L 11.253906 198.347656 L 62.140625 166.839844 " fill-opacity="1" fill-rule="nonzero"/><g clip-path="url(#f09c184d1f)"><g clip-path="url(#592de0eba8)"><path fill="#5bb4e0" d="M 203.398438 44.425781 L 200.941406 44.425781 L 200.941406 36.042969 L 203.398438 36.042969 L 203.398438 44.425781 " fill-opacity="1" fill-rule="nonzero"/></g></g><path fill="#73d1de" d="M 197.203125 33.300781 C 199.347656 33.300781 201.238281 34.386719 202.347656 36.042969 L 200.941406 44.425781 C 199.902344 45.214844 198.605469 45.679688 197.203125 45.679688 C 193.78125 45.679688 191.007812 42.90625 191.007812 39.488281 C 191.007812 36.070312 193.78125 33.300781 197.203125 33.300781 M 197.203125 43.792969 C 199.582031 43.792969 201.511719 41.867188 201.511719 39.488281 C 201.511719 37.113281 199.582031 35.183594 197.203125 35.183594 C 194.820312 35.183594 192.890625 37.113281 192.890625 39.488281 C 192.890625 41.867188 194.820312 43.792969 197.203125 43.792969 " fill-opacity="1" fill-rule="nonzero"/><path fill="#83d5d4" d="M 197.203125 35.183594 C 199.582031 35.183594 201.511719 37.109375 201.511719 39.488281 C 201.511719 41.867188 199.582031 43.792969 197.203125 43.792969 C 194.820312 43.792969 192.890625 41.867188 192.890625 39.488281 C 192.890625 37.109375 194.820312 35.183594 197.203125 35.183594 M 197.203125 42.050781 C 198.617188 42.050781 199.765625 40.902344 199.765625 39.488281 C 199.765625 38.074219 198.617188 36.925781 197.203125 36.925781 C 195.785156 36.925781 194.636719 38.074219 194.636719 39.488281 C 194.636719 40.902344 195.785156 42.050781 197.203125 42.050781 " fill-opacity="1" fill-rule="nonzero"/><path fill="#e7f7fa" d="M 197.203125 36.929688 C 198.621094 36.929688 199.765625 38.078125 199.765625 39.488281 C 199.765625 40.90625 198.621094 42.050781 197.203125 42.050781 C 195.785156 42.050781 194.640625 40.90625 194.640625 39.488281 C 194.640625 38.078125 195.785156 36.929688 197.203125 36.929688 " fill-opacity="1" fill-rule="nonzero"/><path fill="#9adee8" d="M 51.273438 35.183594 C 54.695312 35.183594 57.46875 37.953125 57.46875 41.375 C 57.46875 44.792969 54.695312 47.5625 51.273438 47.5625 C 47.851562 47.5625 45.078125 44.792969 45.078125 41.375 C 45.078125 37.953125 47.851562 35.183594 51.273438 35.183594 M 51.273438 45.679688 C 53.652344 45.679688 55.582031 43.753906 55.582031 41.375 C 55.582031 38.996094 53.652344 37.066406 51.273438 37.066406 C 48.894531 37.066406 46.964844 38.996094 46.964844 41.375 C 46.964844 43.753906 48.894531 45.679688 51.273438 45.679688 " fill-opacity="1" fill-rule="nonzero"/><path fill="#a6e1de" d="M 51.273438 37.070312 C 53.65625 37.070312 55.582031 38.996094 55.582031 41.375 C 55.582031 43.753906 53.65625 45.683594 51.273438 45.683594 C 48.894531 45.683594 46.964844 43.753906 46.964844 41.375 C 46.964844 38.996094 48.894531 37.070312 51.273438 37.070312 M 51.273438 43.9375 C 52.691406 43.9375 53.839844 42.789062 53.839844 41.375 C 53.839844 39.960938 52.691406 38.8125 51.273438 38.8125 C 49.859375 38.8125 48.710938 39.960938 48.710938 41.375 C 48.710938 42.789062 49.859375 43.9375 51.273438 43.9375 " fill-opacity="1" fill-rule="nonzero"/><path fill="#eef9fd" d="M 51.273438 38.8125 C 52.691406 38.8125 53.835938 39.960938 53.835938 41.375 C 53.835938 42.789062 52.691406 43.9375 51.273438 43.9375 C 49.859375 43.9375 48.710938 42.789062 48.710938 41.375 C 48.710938 39.960938 49.859375 38.8125 51.273438 38.8125 " fill-opacity="1" fill-rule="nonzero"/><path fill="#3891ba" d="M 181.066406 153.148438 C 181.097656 153.386719 181.109375 153.628906 181.109375 153.878906 C 181.109375 157.296875 178.335938 160.070312 174.914062 160.070312 C 172.90625 160.070312 171.121094 159.117188 169.992188 157.640625 L 174.054688 158.394531 L 174.382812 158.152344 C 174.554688 158.175781 174.734375 158.183594 174.914062 158.183594 C 177.058594 158.183594 178.839844 156.621094 179.167969 154.566406 L 181.066406 153.148438 " fill-opacity="1" fill-rule="nonzero"/><path fill="#5bb4e0" d="M 174.914062 147.6875 C 178.089844 147.6875 180.707031 150.074219 181.066406 153.148438 L 179.167969 154.566406 C 179.203125 154.34375 179.222656 154.113281 179.222656 153.878906 C 179.222656 151.503906 177.292969 149.574219 174.914062 149.574219 C 172.535156 149.574219 170.605469 151.503906 170.605469 153.878906 C 170.605469 156.078125 172.253906 157.886719 174.382812 158.152344 L 174.054688 158.394531 L 169.992188 157.640625 C 169.191406 156.597656 168.71875 155.292969 168.71875 153.878906 C 168.71875 150.460938 171.492188 147.6875 174.914062 147.6875 " fill-opacity="1" fill-rule="nonzero"/><path fill="#46c2ca" d="M 179.167969 154.566406 C 178.839844 156.621094 177.058594 158.183594 174.914062 158.183594 C 174.734375 158.183594 174.554688 158.175781 174.382812 158.152344 L 179.167969 154.566406 " fill-opacity="1" fill-rule="nonzero"/><path fill="#6bcfe4" d="M 174.914062 149.574219 C 177.292969 149.574219 179.222656 151.503906 179.222656 153.878906 C 179.222656 154.113281 179.203125 154.34375 179.167969 154.566406 L 174.382812 158.152344 C 172.253906 157.886719 170.605469 156.078125 170.605469 153.878906 C 170.605469 151.503906 172.535156 149.574219 174.914062 149.574219 M 174.914062 156.441406 C 176.332031 156.441406 177.480469 155.292969 177.480469 153.878906 C 177.480469 152.464844 176.332031 151.320312 174.914062 151.320312 C 173.5 151.320312 172.351562 152.464844 172.351562 153.878906 C 172.351562 155.292969 173.5 156.441406 174.914062 156.441406 " fill-opacity="1" fill-rule="nonzero"/><path fill="#e2f6fd" d="M 174.914062 151.320312 C 176.332031 151.320312 177.480469 152.464844 177.480469 153.878906 C 177.480469 155.292969 176.332031 156.441406 174.914062 156.441406 C 173.5 156.441406 172.351562 155.292969 172.351562 153.878906 C 172.351562 152.464844 173.5 151.320312 174.914062 151.320312 " fill-opacity="1" fill-rule="nonzero"/><path fill="#73d1de" d="M 188.898438 209.742188 C 192.320312 209.742188 195.09375 212.511719 195.09375 215.933594 C 195.09375 219.351562 192.320312 222.121094 188.898438 222.121094 C 185.476562 222.121094 182.699219 219.351562 182.699219 215.933594 C 182.699219 212.511719 185.476562 209.742188 188.898438 209.742188 M 188.898438 220.238281 C 191.277344 220.238281 193.207031 218.308594 193.207031 215.933594 C 193.207031 213.554688 191.277344 211.625 188.898438 211.625 C 186.519531 211.625 184.589844 213.554688 184.589844 215.933594 C 184.589844 218.308594 186.519531 220.238281 188.898438 220.238281 " fill-opacity="1" fill-rule="nonzero"/><path fill="#83d5d4" d="M 188.898438 211.625 C 191.277344 211.625 193.207031 213.554688 193.207031 215.933594 C 193.207031 218.308594 191.277344 220.238281 188.898438 220.238281 C 186.519531 220.238281 184.589844 218.308594 184.589844 215.933594 C 184.589844 213.554688 186.519531 211.625 188.898438 211.625 M 188.898438 218.492188 C 190.3125 218.492188 191.460938 217.347656 191.460938 215.933594 C 191.460938 214.515625 190.3125 213.371094 188.898438 213.371094 C 187.480469 213.371094 186.335938 214.515625 186.335938 215.933594 C 186.335938 217.347656 187.480469 218.492188 188.898438 218.492188 " fill-opacity="1" fill-rule="nonzero"/><path fill="#e7f7fa" d="M 188.898438 213.371094 C 190.3125 213.371094 191.460938 214.515625 191.460938 215.933594 C 191.460938 217.347656 190.3125 218.492188 188.898438 218.492188 C 187.480469 218.492188 186.335938 217.347656 186.335938 215.933594 C 186.335938 214.515625 187.480469 213.371094 188.898438 213.371094 " fill-opacity="1" fill-rule="nonzero"/><path fill="#73d1de" d="M 34.324219 240.402344 L 39.347656 242.382812 C 39.191406 242.390625 39.039062 242.398438 38.882812 242.398438 C 37.078125 242.398438 35.457031 241.628906 34.324219 240.402344 " fill-opacity="1" fill-rule="nonzero"/><path fill="#5bb4e0" d="M 38.882812 230.019531 C 42.304688 230.019531 45.078125 232.789062 45.078125 236.207031 C 45.078125 239.472656 42.550781 242.144531 39.347656 242.382812 L 34.324219 240.402344 C 33.308594 239.300781 32.6875 237.824219 32.6875 236.207031 C 32.6875 232.789062 35.460938 230.019531 38.882812 230.019531 M 38.882812 240.511719 C 41.261719 240.511719 43.191406 238.585938 43.191406 236.207031 C 43.191406 233.832031 41.261719 231.902344 38.882812 231.902344 C 36.5 231.902344 34.570312 233.832031 34.570312 236.207031 C 34.570312 238.585938 36.5 240.511719 38.882812 240.511719 " fill-opacity="1" fill-rule="nonzero"/><path fill="#6bcfe4" d="M 38.882812 231.902344 C 41.261719 231.902344 43.191406 233.832031 43.191406 236.207031 C 43.191406 238.585938 41.261719 240.511719 38.882812 240.511719 C 36.5 240.511719 34.570312 238.585938 34.570312 236.207031 C 34.570312 233.832031 36.5 231.902344 38.882812 231.902344 M 38.882812 238.769531 C 40.296875 238.769531 41.445312 237.621094 41.445312 236.207031 C 41.445312 234.792969 40.296875 233.644531 38.882812 233.644531 C 37.464844 233.644531 36.316406 234.792969 36.316406 236.207031 C 36.316406 237.621094 37.464844 238.769531 38.882812 238.769531 " fill-opacity="1" fill-rule="nonzero"/><path fill="#e2f6fd" d="M 38.882812 233.644531 C 40.296875 233.644531 41.445312 234.792969 41.445312 236.207031 C 41.445312 237.621094 40.296875 238.769531 38.882812 238.769531 C 37.464844 238.769531 36.316406 237.621094 36.316406 236.207031 C 36.316406 234.792969 37.464844 233.644531 38.882812 233.644531 " fill-opacity="1" fill-rule="nonzero"/><path fill="#5bb4e0" d="M 126.433594 289.773438 C 125.734375 292.425781 123.316406 294.378906 120.441406 294.378906 C 119.800781 294.378906 119.183594 294.28125 118.601562 294.097656 L 121.765625 292.289062 C 122.34375 292.101562 122.867188 291.796875 123.3125 291.402344 L 124.796875 290.550781 L 126.433594 289.773438 " fill-opacity="1" fill-rule="nonzero"/><path fill="#73d1de" d="M 124.796875 290.550781 L 123.3125 291.402344 C 123.410156 291.3125 123.507812 291.21875 123.601562 291.121094 L 124.796875 290.550781 M 121.765625 292.289062 L 118.601562 294.097656 C 118.355469 294.023438 118.117188 293.933594 117.890625 293.832031 L 120.722656 292.484375 C 121.085938 292.460938 121.433594 292.394531 121.765625 292.289062 " fill-opacity="1" fill-rule="nonzero"/><path fill="#9adee8" d="M 126.339844 286.285156 C 126.535156 286.886719 126.640625 287.523438 126.640625 288.1875 C 126.640625 288.738281 126.570312 289.269531 126.433594 289.773438 L 124.796875 290.550781 L 123.601562 291.121094 C 124.316406 290.351562 124.753906 289.320312 124.753906 288.1875 C 124.753906 287.5625 124.621094 286.972656 124.382812 286.433594 L 126.339844 286.285156 M 116.289062 287.050781 C 116.1875 287.414062 116.136719 287.796875 116.136719 288.1875 C 116.136719 290.566406 118.066406 292.492188 120.441406 292.492188 C 120.539062 292.492188 120.628906 292.492188 120.722656 292.484375 L 117.890625 293.832031 C 115.742188 292.859375 114.25 290.699219 114.25 288.1875 C 114.25 287.851562 114.277344 287.519531 114.328125 287.199219 L 116.289062 287.050781 " fill-opacity="1" fill-rule="nonzero"/><path fill="#236c75" d="M 120.441406 282 C 123.203125 282 125.539062 283.800781 126.339844 286.285156 L 124.382812 286.433594 C 123.710938 284.929688 122.199219 283.882812 120.441406 283.882812 C 118.460938 283.882812 116.789062 285.226562 116.289062 287.050781 L 114.328125 287.199219 C 114.804688 284.25 117.359375 282 120.441406 282 " fill-opacity="1" fill-rule="nonzero"/><path fill="#6bcfe4" d="M 123.3125 291.402344 C 122.867188 291.796875 122.34375 292.101562 121.765625 292.289062 L 123.3125 291.402344 " fill-opacity="1" fill-rule="nonzero"/><path fill="#83d5d4" d="M 123.601562 291.121094 C 123.507812 291.21875 123.410156 291.3125 123.3125 291.402344 L 121.765625 292.289062 C 121.433594 292.394531 121.085938 292.460938 120.722656 292.484375 L 123.601562 291.121094 " fill-opacity="1" fill-rule="nonzero"/><path fill="#a6e1de" d="M 124.382812 286.433594 C 124.621094 286.972656 124.753906 287.5625 124.753906 288.1875 C 124.753906 289.320312 124.316406 290.351562 123.601562 291.121094 L 120.722656 292.484375 C 120.628906 292.492188 120.539062 292.492188 120.441406 292.492188 C 118.066406 292.492188 116.136719 290.566406 116.136719 288.1875 C 116.136719 287.796875 116.1875 287.414062 116.289062 287.050781 L 118.226562 286.902344 C 118.007812 287.28125 117.882812 287.722656 117.882812 288.1875 C 117.882812 289.601562 119.027344 290.75 120.441406 290.75 C 121.859375 290.75 123.007812 289.601562 123.007812 288.1875 C 123.007812 287.582031 122.796875 287.019531 122.441406 286.582031 L 124.382812 286.433594 " fill-opacity="1" fill-rule="nonzero"/><path fill="#35ba9d" d="M 120.441406 283.882812 C 122.199219 283.882812 123.710938 284.929688 124.382812 286.433594 L 122.441406 286.582031 C 121.972656 286 121.25 285.625 120.441406 285.625 C 119.496094 285.625 118.671875 286.140625 118.226562 286.902344 L 116.289062 287.050781 C 116.789062 285.226562 118.460938 283.882812 120.441406 283.882812 " fill-opacity="1" fill-rule="nonzero"/><path fill="#eef9fd" d="M 122.441406 286.582031 C 122.796875 287.019531 123.007812 287.582031 123.007812 288.1875 C 123.007812 289.601562 121.859375 290.75 120.441406 290.75 C 119.027344 290.75 117.882812 289.601562 117.882812 288.1875 C 117.882812 287.722656 118.007812 287.28125 118.226562 286.902344 L 122.441406 286.582031 " fill-opacity="1" fill-rule="nonzero"/><path fill="#d7f1e7" d="M 120.441406 285.625 C 121.25 285.625 121.972656 286 122.441406 286.582031 L 118.226562 286.902344 C 118.671875 286.140625 119.496094 285.625 120.441406 285.625 " fill-opacity="1" fill-rule="nonzero"/><path fill="#73d1de" d="M 45.078125 304.449219 C 48.5 304.449219 51.273438 307.222656 51.273438 310.640625 C 51.273438 314.058594 48.5 316.832031 45.078125 316.832031 C 41.65625 316.832031 38.882812 314.058594 38.882812 310.640625 C 38.882812 307.222656 41.65625 304.449219 45.078125 304.449219 M 45.078125 314.945312 C 47.457031 314.945312 49.386719 313.019531 49.386719 310.640625 C 49.386719 308.261719 47.457031 306.335938 45.078125 306.335938 C 42.699219 306.335938 40.765625 308.261719 40.765625 310.640625 C 40.765625 313.019531 42.699219 314.945312 45.078125 314.945312 " fill-opacity="1" fill-rule="nonzero"/><path fill="#83d5d4" d="M 45.078125 306.335938 C 47.457031 306.335938 49.386719 308.261719 49.386719 310.640625 C 49.386719 313.019531 47.457031 314.945312 45.078125 314.945312 C 42.699219 314.945312 40.765625 313.019531 40.765625 310.640625 C 40.765625 308.261719 42.699219 306.335938 45.078125 306.335938 M 45.078125 313.203125 C 46.492188 313.203125 47.640625 312.054688 47.640625 310.640625 C 47.640625 309.222656 46.492188 308.078125 45.078125 308.078125 C 43.664062 308.078125 42.515625 309.222656 42.515625 310.640625 C 42.515625 312.054688 43.664062 313.203125 45.078125 313.203125 " fill-opacity="1" fill-rule="nonzero"/><path fill="#e7f7fa" d="M 45.078125 308.078125 C 46.492188 308.078125 47.640625 309.222656 47.640625 310.640625 C 47.640625 312.054688 46.492188 313.203125 45.078125 313.203125 C 43.664062 313.203125 42.515625 312.054688 42.515625 310.640625 C 42.515625 309.222656 43.664062 308.078125 45.078125 308.078125 " fill-opacity="1" fill-rule="nonzero"/><path fill="#3891ba" d="M 108.050781 351.011719 C 111.472656 351.011719 114.25 353.78125 114.25 357.203125 C 114.25 360.621094 111.472656 363.390625 108.050781 363.390625 C 104.628906 363.390625 101.855469 360.621094 101.855469 357.203125 C 101.855469 353.78125 104.628906 351.011719 108.050781 351.011719 M 108.050781 361.507812 C 110.433594 361.507812 112.359375 359.578125 112.359375 357.203125 C 112.359375 354.824219 110.433594 352.894531 108.050781 352.894531 C 105.671875 352.894531 103.742188 354.824219 103.742188 357.203125 C 103.742188 359.578125 105.671875 361.507812 108.050781 361.507812 " fill-opacity="1" fill-rule="nonzero"/><path fill="#46c2ca" d="M 108.050781 352.894531 C 110.433594 352.894531 112.359375 354.824219 112.359375 357.203125 C 112.359375 359.578125 110.433594 361.507812 108.050781 361.507812 C 105.671875 361.507812 103.742188 359.578125 103.742188 357.203125 C 103.742188 354.824219 105.671875 352.894531 108.050781 352.894531 M 108.050781 359.761719 C 109.464844 359.761719 110.613281 358.617188 110.613281 357.203125 C 110.613281 355.789062 109.464844 354.640625 108.050781 354.640625 C 106.636719 354.640625 105.488281 355.789062 105.488281 357.203125 C 105.488281 358.617188 106.636719 359.761719 108.050781 359.761719 " fill-opacity="1" fill-rule="nonzero"/><path fill="#dbf3f5" d="M 108.050781 354.640625 C 109.464844 354.640625 110.613281 355.789062 110.613281 357.203125 C 110.613281 358.617188 109.464844 359.761719 108.050781 359.761719 C 106.636719 359.761719 105.488281 358.617188 105.488281 357.203125 C 105.488281 355.789062 106.636719 354.640625 108.050781 354.640625 " fill-opacity="1" fill-rule="nonzero"/><path fill="#5bb4e0" d="M 180.132812 290.75 C 183.554688 290.75 186.332031 293.519531 186.332031 296.941406 C 186.332031 300.359375 183.554688 303.132812 180.132812 303.132812 C 176.710938 303.132812 173.9375 300.359375 173.9375 296.941406 C 173.9375 293.519531 176.710938 290.75 180.132812 290.75 M 180.132812 301.246094 C 182.515625 301.246094 184.445312 299.320312 184.445312 296.941406 C 184.445312 294.5625 182.515625 292.636719 180.132812 292.636719 C 177.753906 292.636719 175.824219 294.5625 175.824219 296.941406 C 175.824219 299.320312 177.753906 301.246094 180.132812 301.246094 " fill-opacity="1" fill-rule="nonzero"/><path fill="#6bcfe4" d="M 180.132812 292.636719 C 182.515625 292.636719 184.445312 294.5625 184.445312 296.941406 C 184.445312 299.320312 182.515625 301.246094 180.132812 301.246094 C 177.753906 301.246094 175.824219 299.320312 175.824219 296.941406 C 175.824219 294.5625 177.753906 292.636719 180.132812 292.636719 M 180.132812 299.503906 C 181.550781 299.503906 182.699219 298.355469 182.699219 296.941406 C 182.699219 295.527344 181.550781 294.378906 180.132812 294.378906 C 178.71875 294.378906 177.570312 295.527344 177.570312 296.941406 C 177.570312 298.355469 178.71875 299.503906 180.132812 299.503906 " fill-opacity="1" fill-rule="nonzero"/><path fill="#e2f6fd" d="M 180.132812 294.378906 C 181.550781 294.378906 182.699219 295.527344 182.699219 296.941406 C 182.699219 298.355469 181.550781 299.503906 180.132812 299.503906 C 178.71875 299.503906 177.570312 298.355469 177.570312 296.941406 C 177.570312 295.527344 178.71875 294.378906 180.132812 294.378906 " fill-opacity="1" fill-rule="nonzero"/><path fill="#3891ba" d="M 16.4375 118.128906 C 19.859375 118.128906 22.632812 120.898438 22.632812 124.316406 C 22.632812 127.738281 19.859375 130.507812 16.4375 130.507812 C 13.015625 130.507812 10.238281 127.738281 10.238281 124.316406 C 10.238281 120.898438 13.015625 118.128906 16.4375 118.128906 M 16.4375 128.621094 C 18.816406 128.621094 20.746094 126.695312 20.746094 124.316406 C 20.746094 121.941406 18.816406 120.011719 16.4375 120.011719 C 14.054688 120.011719 12.125 121.941406 12.125 124.316406 C 12.125 126.695312 14.054688 128.621094 16.4375 128.621094 " fill-opacity="1" fill-rule="nonzero"/><path fill="#46c2ca" d="M 16.433594 120.011719 C 18.816406 120.011719 20.746094 121.9375 20.746094 124.320312 C 20.746094 126.695312 18.816406 128.625 16.433594 128.625 C 14.054688 128.625 12.125 126.695312 12.125 124.320312 C 12.125 121.9375 14.054688 120.011719 16.433594 120.011719 M 16.433594 126.878906 C 17.851562 126.878906 19 125.734375 19 124.320312 C 19 122.902344 17.851562 121.753906 16.433594 121.753906 C 15.019531 121.753906 13.871094 122.902344 13.871094 124.320312 C 13.871094 125.734375 15.019531 126.878906 16.433594 126.878906 " fill-opacity="1" fill-rule="nonzero"/><path fill="#dbf3f5" d="M 16.4375 121.757812 C 17.855469 121.757812 19 122.902344 19 124.320312 C 19 125.734375 17.855469 126.878906 16.4375 126.878906 C 15.023438 126.878906 13.875 125.734375 13.875 124.320312 C 13.875 122.902344 15.023438 121.757812 16.4375 121.757812 " fill-opacity="1" fill-rule="nonzero"/><path fill="#5bb4e0" d="M 81.464844 174.371094 C 84.882812 174.371094 87.660156 177.140625 87.660156 180.558594 C 87.660156 183.980469 84.882812 186.75 81.464844 186.75 C 79.546875 186.75 77.835938 185.882812 76.699219 184.519531 L 77.617188 182.503906 C 78.328125 183.90625 79.78125 184.867188 81.464844 184.867188 C 83.839844 184.867188 85.773438 182.9375 85.773438 180.558594 C 85.773438 178.183594 83.839844 176.253906 81.464844 176.253906 C 81.089844 176.253906 80.726562 176.300781 80.378906 176.390625 L 81.292969 174.371094 C 81.347656 174.371094 81.40625 174.371094 81.464844 174.371094 " fill-opacity="1" fill-rule="nonzero"/><path fill="#9adee8" d="M 81.292969 174.371094 L 80.378906 176.390625 C 78.523438 176.871094 77.152344 178.554688 77.152344 180.558594 C 77.152344 181.261719 77.316406 181.917969 77.617188 182.503906 L 76.699219 184.519531 C 75.804688 183.449219 75.265625 182.066406 75.265625 180.558594 C 75.265625 177.199219 77.949219 174.460938 81.292969 174.371094 " fill-opacity="1" fill-rule="nonzero"/><path fill="#6bcfe4" d="M 81.464844 176.253906 C 83.839844 176.253906 85.773438 178.183594 85.773438 180.558594 C 85.773438 182.9375 83.839844 184.867188 81.464844 184.867188 C 79.78125 184.867188 78.328125 183.90625 77.617188 182.503906 L 80.378906 176.390625 C 80.726562 176.300781 81.089844 176.253906 81.464844 176.253906 M 81.464844 183.121094 C 82.878906 183.121094 84.027344 181.972656 84.027344 180.558594 C 84.027344 179.148438 82.878906 178 81.464844 178 C 80.046875 178 78.898438 179.148438 78.898438 180.558594 C 78.898438 181.972656 80.046875 183.121094 81.464844 183.121094 " fill-opacity="1" fill-rule="nonzero"/><path fill="#a6e1de" d="M 80.378906 176.390625 L 77.617188 182.503906 C 77.316406 181.917969 77.152344 181.261719 77.152344 180.558594 C 77.152344 178.554688 78.523438 176.871094 80.378906 176.390625 " fill-opacity="1" fill-rule="nonzero"/><path fill="#e2f6fd" d="M 81.464844 178 C 82.878906 178 84.027344 179.148438 84.027344 180.558594 C 84.027344 181.972656 82.878906 183.121094 81.464844 183.121094 C 80.046875 183.121094 78.898438 181.972656 78.898438 180.558594 C 78.898438 179.148438 80.046875 178 81.464844 178 " fill-opacity="1" fill-rule="nonzero"/><path fill="#9adee8" d="M 138.316406 55.753906 C 141.738281 55.753906 144.511719 58.523438 144.511719 61.941406 C 144.511719 65.363281 141.738281 68.136719 138.316406 68.136719 C 134.894531 68.136719 132.117188 65.363281 132.117188 61.941406 C 132.117188 58.523438 134.894531 55.753906 138.316406 55.753906 M 138.316406 66.25 C 140.695312 66.25 142.625 64.324219 142.625 61.941406 C 142.625 59.566406 140.695312 57.640625 138.316406 57.640625 C 135.933594 57.640625 134.007812 59.566406 134.007812 61.941406 C 134.007812 64.324219 135.933594 66.25 138.316406 66.25 " fill-opacity="1" fill-rule="nonzero"/><path fill="#a6e1de" d="M 138.3125 57.636719 C 140.695312 57.636719 142.625 59.566406 142.625 61.941406 C 142.625 64.320312 140.695312 66.246094 138.3125 66.246094 C 135.933594 66.246094 134.007812 64.320312 134.007812 61.941406 C 134.007812 59.566406 135.933594 57.636719 138.3125 57.636719 M 138.3125 64.503906 C 139.730469 64.503906 140.878906 63.355469 140.878906 61.941406 C 140.878906 60.527344 139.730469 59.382812 138.3125 59.382812 C 136.898438 59.382812 135.753906 60.527344 135.753906 61.941406 C 135.753906 63.355469 136.898438 64.503906 138.3125 64.503906 " fill-opacity="1" fill-rule="nonzero"/><path fill="#eef9fd" d="M 138.3125 59.378906 C 139.730469 59.378906 140.878906 60.527344 140.878906 61.941406 C 140.878906 63.355469 139.730469 64.503906 138.3125 64.503906 C 136.898438 64.503906 135.75 63.355469 135.75 61.941406 C 135.75 60.527344 136.898438 59.378906 138.3125 59.378906 " fill-opacity="1" fill-rule="nonzero"/><path fill="#9adee8" d="M 97.851562 111.9375 C 101.273438 111.9375 104.046875 114.707031 104.046875 118.128906 C 104.046875 118.78125 103.945312 119.414062 103.757812 120.003906 L 101.910156 119.570312 C 102.070312 119.121094 102.160156 118.632812 102.160156 118.128906 C 102.160156 115.75 100.230469 113.820312 97.851562 113.820312 C 95.640625 113.820312 93.820312 115.480469 93.570312 117.621094 L 91.722656 117.191406 C 92.175781 114.21875 94.746094 111.9375 97.851562 111.9375 " fill-opacity="1" fill-rule="nonzero"/><path fill="#9adee8" d="M 91.722656 117.191406 L 93.570312 117.621094 C 93.550781 117.789062 93.542969 117.957031 93.542969 118.128906 C 93.542969 120.503906 95.472656 122.433594 97.851562 122.433594 C 99.722656 122.433594 101.316406 121.238281 101.910156 119.570312 L 103.757812 120.003906 C 102.960938 122.503906 100.617188 124.316406 97.851562 124.316406 C 94.429688 124.316406 91.65625 121.546875 91.65625 118.128906 C 91.65625 117.808594 91.675781 117.496094 91.722656 117.191406 " fill-opacity="1" fill-rule="nonzero"/><path fill="#a6e1de" d="M 97.851562 113.820312 C 100.230469 113.820312 102.160156 115.75 102.160156 118.128906 C 102.160156 118.632812 102.070312 119.121094 101.910156 119.570312 L 100.195312 119.171875 C 100.335938 118.851562 100.414062 118.496094 100.414062 118.128906 C 100.414062 116.710938 99.265625 115.566406 97.851562 115.566406 C 96.46875 115.566406 95.34375 116.65625 95.289062 118.023438 L 93.570312 117.621094 C 93.820312 115.480469 95.640625 113.820312 97.851562 113.820312 " fill-opacity="1" fill-rule="nonzero"/><path fill="#a6e1de" d="M 93.570312 117.621094 L 95.289062 118.023438 C 95.285156 118.058594 95.285156 118.09375 95.285156 118.128906 C 95.285156 119.542969 96.433594 120.6875 97.851562 120.6875 C 98.894531 120.6875 99.792969 120.0625 100.195312 119.171875 L 101.910156 119.570312 C 101.316406 121.238281 99.722656 122.433594 97.851562 122.433594 C 95.472656 122.433594 93.542969 120.503906 93.542969 118.128906 C 93.542969 117.957031 93.550781 117.789062 93.570312 117.621094 " fill-opacity="1" fill-rule="nonzero"/><path fill="#eef9fd" d="M 97.851562 115.566406 C 99.265625 115.566406 100.414062 116.710938 100.414062 118.128906 C 100.414062 118.496094 100.335938 118.851562 100.195312 119.171875 L 95.289062 118.023438 C 95.34375 116.65625 96.46875 115.566406 97.851562 115.566406 " fill-opacity="1" fill-rule="nonzero"/><path fill="#eef9fd" d="M 95.289062 118.023438 L 100.195312 119.171875 C 99.792969 120.0625 98.894531 120.6875 97.851562 120.6875 C 96.433594 120.6875 95.285156 119.542969 95.285156 118.128906 C 95.285156 118.09375 95.285156 118.058594 95.289062 118.023438 " fill-opacity="1" fill-rule="nonzero"/><path fill="#ffffff" d="M 197.375 39.9375 L 138.351562 62.441406 L 52.273438 42.101562 L 98.664062 118.546875 L 17.011719 124.753906 L 39.3125 235.914062 L 121.582031 288.347656 L 46.117188 310.828125 L 108.035156 357.804688 L 179.808594 296.507812 L 188.414062 215.960938 L 174.449219 153.984375 L 175.382812 153.777344 L 189.382812 215.902344 L 180.71875 296.984375 L 108.070312 359.03125 L 44.039062 310.449219 L 119.304688 288.03125 L 38.457031 236.503906 L 15.863281 123.886719 L 97.039062 117.710938 L 50.273438 40.648438 L 138.28125 61.445312 L 197.03125 39.046875 L 197.375 39.9375 " fill-opacity="1" fill-rule="nonzero"/><path fill="#ffffff" d="M 138.703125 62.222656 L 98.242188 118.40625 L 97.464844 117.847656 L 137.929688 61.664062 " fill-opacity="1" fill-rule="nonzero"/><path fill="#ffffff" d="M 81.621094 180.109375 L 186.761719 216.601562 L 186.445312 217.503906 L 81.304688 181.011719 " fill-opacity="1" fill-rule="nonzero"/><path fill="#ffffff" d="M 39.359375 236.167969 L 45.554688 310.601562 L 44.601562 310.679688 L 38.40625 236.246094 " fill-opacity="1" fill-rule="nonzero"/><path fill="#ffffff" d="M 120.914062 289.273438 L 108.523438 357.285156 L 107.582031 357.113281 L 119.972656 289.101562 " fill-opacity="1" fill-rule="nonzero"/><path fill="#ffffff" d="M 188.179688 216.257812 L 120.792969 288.511719 L 120.09375 287.863281 L 187.480469 215.605469 " fill-opacity="1" fill-rule="nonzero"/><path fill="#ffffff" d="M 80.945312 181.273438 L 120.890625 288.023438 L 119.996094 288.355469 L 80.050781 181.605469 " fill-opacity="1" fill-rule="nonzero"/><path fill="#ffffff" d="M 38.5 235.917969 L 81.082031 180.273438 L 81.839844 180.851562 L 39.261719 236.496094 " fill-opacity="1" fill-rule="nonzero"/><path fill="#ffffff" d="M 98.050781 117.695312 L 175.117188 153.445312 L 174.710938 154.3125 L 97.648438 118.558594 " fill-opacity="1" fill-rule="nonzero"/><path fill="#ffffff" d="M 16.75 123.960938 L 80.8125 180.203125 L 80.183594 180.917969 L 16.121094 124.675781 " fill-opacity="1" fill-rule="nonzero"/><path fill="#ffffff" d="M 51.714844 41.558594 L 16.875 124.503906 L 15.996094 124.132812 L 50.832031 41.1875 " fill-opacity="1" fill-rule="nonzero"/><path fill="#ffffff" d="M 139.71875 62.308594 L 174.429688 153.976562 L 173.535156 154.3125 L 138.824219 62.644531 " fill-opacity="1" fill-rule="nonzero"/><path fill="#ffffff" d="M 197.671875 39.585938 L 174.449219 154.242188 L 173.511719 154.050781 L 196.734375 39.394531 " fill-opacity="1" fill-rule="nonzero"/><path fill="#ffffff" d="M 80.367188 180.101562 L 173.851562 153.6875 L 174.113281 154.605469 L 80.628906 181.019531 " fill-opacity="1" fill-rule="nonzero"/><path fill="#ffffff" d="M 98.3125 118.25 L 81.921875 180.683594 L 81 180.4375 L 97.386719 118.007812 " fill-opacity="1" fill-rule="nonzero"/><path fill="#ffffff" d="M 120.507812 288.714844 L 179.285156 296.46875 L 179.160156 297.414062 L 120.382812 289.660156 " fill-opacity="1" fill-rule="nonzero"/></svg>