<svg xmlns="http://www.w3.org/2000/svg" xmlns:xlink="http://www.w3.org/1999/xlink" width="380" zoomAndPan="magnify" viewBox="0 0 285 374.999991" height="500" preserveAspectRatio="xMidYMid meet" version="1.0"><defs><clipPath id="59ee3c7a83"><path d="M 11.25 0 L 273.75 0 L 273.75 375 L 11.25 375 Z M 11.25 0 " clip-rule="nonzero"/></clipPath><clipPath id="607823125f"><path d="M 149 0 L 273.75 0 L 273.75 370 L 149 370 Z M 149 0 " clip-rule="nonzero"/></clipPath><clipPath id="ba9138f663"><path d="M 11.25 0 L 136 0 L 136 370 L 11.25 370 Z M 11.25 0 " clip-rule="nonzero"/></clipPath></defs><g clip-path="url(#59ee3c7a83)"><path fill="#62cce5" d="M 273.761719 64.667969 L 271.371094 177.238281 C 271.371094 177.238281 268.011719 230.886719 267.535156 232.320312 C 267.054688 233.757812 216.761719 335.789062 216.761719 335.789062 L 171.765625 365.058594 L 164.675781 369.671875 L 157.84375 374.109375 L 127.1875 374.109375 L 113.136719 364.972656 L 68.265625 335.789062 C 68.265625 335.789062 17.96875 233.757812 17.492188 232.320312 C 17.011719 230.886719 13.664062 177.238281 13.664062 177.238281 L 11.261719 64.667969 L 67.394531 0.449219 L 67.3125 -0.00390625 L 217.722656 -0.00390625 L 217.628906 0.4375 L 273.761719 64.667969 " fill-opacity="1" fill-rule="nonzero"/></g><path fill="#4a9bdb" d="M 142.714844 315.160156 L 109.261719 310.160156 L 142.796875 329.320312 L 176.167969 310.160156 L 142.714844 315.160156 " fill-opacity="1" fill-rule="nonzero"/><path fill="#4a9bdb" d="M 155.527344 268.324219 L 196.324219 288.683594 L 160.078125 285.96875 Z M 155.527344 268.324219 " fill-opacity="1" fill-rule="nonzero"/><path fill="#4a9bdb" d="M 129.898438 268.324219 L 88.648438 288.683594 L 124.894531 285.96875 Z M 129.898438 268.324219 " fill-opacity="1" fill-rule="nonzero"/><path fill="#4a9bdb" d="M 153.796875 186.339844 C 153.796875 186.820312 158.480469 241.902344 158.480469 241.902344 L 178.601562 237.75 L 165.347656 224.175781 L 153.796875 186.339844 " fill-opacity="1" fill-rule="nonzero"/><path fill="#4a9bdb" d="M 131.578125 186.339844 C 131.578125 186.820312 126.890625 241.902344 126.890625 241.902344 L 106.773438 237.75 L 120.023438 224.175781 L 131.578125 186.339844 " fill-opacity="1" fill-rule="nonzero"/><path fill="#4a9bdb" d="M 142.453125 267.289062 L 173.410156 248.605469 C 173.410156 248.605469 178.761719 242.21875 178.601562 237.75 L 142.515625 247.808594 L 142.453125 267.289062 " fill-opacity="1" fill-rule="nonzero"/><path fill="#4a9bdb" d="M 142.515625 267.289062 L 111.558594 248.605469 C 111.558594 248.605469 106.207031 242.21875 106.367188 237.75 L 142.453125 247.808594 L 142.515625 267.289062 " fill-opacity="1" fill-rule="nonzero"/><g clip-path="url(#607823125f)"><path fill="#4a9bdb" d="M 273.761719 64.667969 L 271.371094 177.238281 C 271.371094 177.238281 268.011719 230.886719 267.535156 232.320312 C 267.054688 233.757812 216.761719 335.789062 216.761719 335.789062 L 171.765625 365.058594 L 164.675781 369.671875 L 165.03125 359.261719 L 219.15625 309.4375 L 228.210938 251.242188 L 149.9375 153.257812 L 184.183594 148.972656 L 222.160156 143.605469 L 233.566406 55.636719 L 210.929688 6.226562 C 210.929688 6.226562 213.386719 2.988281 215.628906 -0.00390625 L 217.722656 -0.00390625 L 217.628906 0.4375 L 273.761719 64.667969 " fill-opacity="1" fill-rule="nonzero"/></g><g clip-path="url(#ba9138f663)"><path fill="#4a9bdb" d="M 11.308594 64.746094 L 13.699219 177.316406 C 13.699219 177.316406 17.054688 230.964844 17.535156 232.398438 C 18.011719 233.835938 68.304688 335.871094 68.304688 335.871094 L 113.300781 365.136719 L 120.394531 369.753906 L 120.039062 359.339844 L 65.910156 309.519531 L 56.859375 251.320312 L 135.132812 153.339844 L 100.882812 149.050781 L 62.910156 143.6875 L 51.503906 55.714844 L 74.136719 6.304688 C 74.136719 6.304688 71.679688 3.070312 69.4375 0.0742188 L 67.347656 0.0742188 L 67.441406 0.515625 L 11.308594 64.746094 " fill-opacity="1" fill-rule="nonzero"/></g><path fill="#8edaf1" d="M 142.515625 270.207031 L 150.25 267.289062 L 155.128906 281.261719 L 142.515625 285.800781 L 142.515625 270.207031 " fill-opacity="1" fill-rule="nonzero"/><path fill="#8edaf1" d="M 142.515625 270.207031 L 134.78125 267.289062 L 129.898438 281.261719 L 142.515625 285.800781 L 142.515625 270.207031 " fill-opacity="1" fill-rule="nonzero"/><path fill="#8edaf1" d="M 139.160156 24.425781 L 51.183594 53.488281 L 55.332031 109.691406 L 127.503906 133.960938 L 143.863281 140.925781 L 158.941406 133.441406 L 229.578125 109.691406 L 233.726562 53.488281 L 139.160156 24.425781 " fill-opacity="1" fill-rule="nonzero"/><path fill="#8edaf1" d="M 102.515625 290.28125 L 98.925781 293.234375 L 119.042969 300.339844 L 142.515625 304.890625 L 165.746094 300.101562 L 186.105469 293.234375 L 169.417969 287.964844 L 150.898438 287.964844 L 102.515625 290.28125 " fill-opacity="1" fill-rule="nonzero"/><path fill="#8edaf1" d="M 160.078125 239.027344 L 149.941406 154.007812 L 135.90625 154.007812 L 124.949219 239.027344 L 140.121094 251.242188 L 160.078125 239.027344 " fill-opacity="1" fill-rule="nonzero"/><path fill="#2c66a6" d="M 165.507812 127.320312 L 161.726562 127.320312 L 149.9375 153.257812 L 204.789062 172.441406 C 204.789062 172.441406 218.382812 175.558594 233.941406 167.578125 L 260.671875 168.371094 L 271.933594 150.179688 L 252.210938 125.285156 L 223.628906 114.160156 L 165.507812 127.320312 " fill-opacity="1" fill-rule="nonzero"/><path fill="#2c66a6" d="M 120.339844 127.324219 L 124.121094 127.324219 L 135.90625 153.257812 L 81.0625 172.441406 C 81.0625 172.441406 67.464844 175.558594 51.910156 167.578125 L 25.175781 168.371094 L 13.917969 150.183594 L 33.636719 125.285156 L 62.21875 114.164062 L 120.339844 127.324219 " fill-opacity="1" fill-rule="nonzero"/><path fill="#16344f" d="M 240.714844 164.777344 C 240.714844 164.777344 228.734375 173.558594 212.449219 173.558594 C 196.164062 173.558594 186.109375 161.910156 186.109375 161.910156 C 189.496094 159.273438 194.09375 157.5 199.035156 156.308594 L 199.035156 156.300781 C 206.148438 154.582031 213.960938 154.085938 219.925781 154.007812 C 225.667969 153.925781 229.691406 154.242188 229.691406 154.242188 L 240.714844 164.777344 " fill-opacity="1" fill-rule="nonzero"/><path fill="#16344f" d="M 45.039062 164.777344 C 45.039062 164.777344 57.019531 173.558594 73.304688 173.558594 C 89.589844 173.558594 99.644531 161.910156 99.644531 161.910156 C 96.257812 159.273438 91.660156 157.5 86.71875 156.308594 L 86.71875 156.296875 C 79.605469 154.582031 71.792969 154.085938 65.828125 154.007812 C 60.085938 153.925781 56.0625 154.242188 56.0625 154.242188 L 45.039062 164.777344 " fill-opacity="1" fill-rule="nonzero"/><path fill="#16344f" d="M 160.078125 239.027344 L 142.515625 245.09375 L 124.949219 239.027344 L 106.429688 237.75 C 106.429688 244.136719 113.453125 246.691406 113.453125 246.691406 L 125.910156 249.246094 L 142.515625 257.867188 L 159.121094 249.246094 L 171.574219 246.691406 C 171.574219 246.691406 178.601562 244.136719 178.601562 237.75 L 160.078125 239.027344 " fill-opacity="1" fill-rule="nonzero"/><path fill="#16344f" d="M 164.386719 281.019531 L 154.492188 281.019531 L 142.515625 285.171875 L 142.515625 294.910156 L 154.011719 291.558594 L 186.105469 293.234375 L 196.324219 288.683594 L 164.386719 281.019531 " fill-opacity="1" fill-rule="nonzero"/><path fill="#16344f" d="M 120.640625 281.019531 L 88.707031 288.683594 L 98.921875 293.234375 L 131.019531 291.558594 L 142.515625 294.910156 L 142.515625 285.171875 L 130.539062 281.019531 L 120.640625 281.019531 " fill-opacity="1" fill-rule="nonzero"/><path fill="#2c66a6" d="M 125.589844 312.636719 L 142.515625 314.390625 L 160.238281 312.636719 L 142.914062 320.9375 L 125.589844 312.636719 " fill-opacity="1" fill-rule="nonzero"/><path fill="#16344f" d="M 159.757812 131.726562 L 176.523438 135.558594 L 229.9375 120.46875 L 255.082031 135.558594 L 252.207031 125.5 L 230.414062 109.691406 L 164.070312 122.625 L 159.757812 131.726562 " fill-opacity="1" fill-rule="nonzero"/><path fill="#16344f" d="M 125.988281 131.726562 L 109.222656 135.558594 L 55.8125 120.46875 L 30.664062 135.558594 L 33.539062 125.5 L 55.332031 109.691406 L 121.679688 122.625 L 125.988281 131.726562 " fill-opacity="1" fill-rule="nonzero"/><path fill="#16344f" d="M 255.082031 212.203125 L 228.738281 247.808594 L 222.160156 290.28125 Z M 255.082031 212.203125 " fill-opacity="1" fill-rule="nonzero"/><path fill="#16344f" d="M 30.664062 212.203125 L 57.011719 247.808594 L 63.585938 290.28125 Z M 30.664062 212.203125 " fill-opacity="1" fill-rule="nonzero"/><path fill="#2c66a6" d="M 165.03125 359.261719 L 142.515625 363.085938 L 119.523438 359.261719 L 113.136719 364.972656 L 127.1875 374.109375 L 157.84375 374.109375 L 171.765625 365.058594 L 165.03125 359.261719 " fill-opacity="1" fill-rule="nonzero"/><path fill="#62cce5" d="M 173.410156 173.042969 L 208.253906 209.59375 L 258.597656 196.371094 L 241.898438 184.734375 L 173.410156 173.042969 " fill-opacity="1" fill-rule="nonzero"/><path fill="#62cce5" d="M 113.734375 173.042969 L 78.890625 209.59375 L 28.550781 196.371094 L 45.25 184.734375 L 113.734375 173.042969 " fill-opacity="1" fill-rule="nonzero"/><path fill="#8edaf1" d="M 190.835938 191.320312 L 208.253906 209.59375 L 240.714844 201.066406 L 213.410156 195.730469 L 190.835938 191.320312 " fill-opacity="1" fill-rule="nonzero"/><path fill="#8edaf1" d="M 96.082031 191.320312 L 78.664062 209.59375 L 46.203125 201.066406 L 73.507812 195.730469 L 96.082031 191.320312 " fill-opacity="1" fill-rule="nonzero"/><path fill="#ccebbb" d="M 237.558594 16.992188 C 235.976562 16.992188 234.523438 17.539062 233.375 18.457031 L 234.722656 20 C 235.507812 19.394531 236.492188 19.035156 237.558594 19.035156 C 240.140625 19.035156 242.230469 21.128906 242.230469 23.707031 C 242.230469 25 241.707031 26.171875 240.855469 27.015625 L 242.203125 28.558594 C 243.480469 27.335938 244.273438 25.613281 244.273438 23.707031 C 244.273438 20 241.269531 16.992188 237.558594 16.992188 " fill-opacity="1" fill-rule="nonzero"/><path fill="#5bb4e0" d="M 233.378906 18.457031 C 231.835938 19.6875 230.847656 21.582031 230.847656 23.707031 C 230.847656 27.414062 233.851562 30.417969 237.5625 30.417969 C 239.363281 30.417969 241 29.710938 242.207031 28.554688 L 240.855469 27.011719 C 240.011719 27.855469 238.847656 28.375 237.5625 28.375 C 234.984375 28.375 232.894531 26.28125 232.894531 23.707031 C 232.894531 22.191406 233.613281 20.851562 234.722656 19.996094 L 233.378906 18.457031 " fill-opacity="1" fill-rule="nonzero"/><path fill="#9ad982" d="M 237.5625 19.035156 C 236.496094 19.035156 235.511719 19.394531 234.722656 19.996094 L 235.972656 21.425781 C 236.425781 21.109375 236.972656 20.925781 237.5625 20.925781 C 239.097656 20.925781 240.34375 22.167969 240.34375 23.703125 C 240.34375 24.429688 240.0625 25.089844 239.609375 25.585938 L 240.855469 27.011719 C 241.707031 26.167969 242.230469 24.996094 242.230469 23.703125 C 242.230469 21.125 240.140625 19.035156 237.5625 19.035156 " fill-opacity="1" fill-rule="nonzero"/><path fill="#6bcfe4" d="M 234.722656 19.996094 C 233.609375 20.851562 232.894531 22.195312 232.894531 23.707031 C 232.894531 26.285156 234.980469 28.375 237.5625 28.375 C 238.847656 28.375 240.011719 27.855469 240.855469 27.015625 L 239.605469 25.585938 C 239.097656 26.136719 238.371094 26.484375 237.5625 26.484375 C 236.027344 26.484375 234.78125 25.238281 234.78125 23.707031 C 234.78125 22.761719 235.257812 21.929688 235.976562 21.425781 L 234.722656 19.996094 " fill-opacity="1" fill-rule="nonzero"/><path fill="#ebf7e3" d="M 237.5625 20.925781 C 236.972656 20.925781 236.425781 21.109375 235.976562 21.425781 L 239.609375 25.585938 C 240.0625 25.089844 240.339844 24.429688 240.339844 23.703125 C 240.339844 22.171875 239.097656 20.925781 237.5625 20.925781 " fill-opacity="1" fill-rule="nonzero"/><path fill="#e2f6fd" d="M 235.976562 21.425781 C 235.257812 21.929688 234.785156 22.761719 234.785156 23.703125 C 234.785156 25.238281 236.027344 26.480469 237.5625 26.480469 C 238.371094 26.480469 239.101562 26.136719 239.609375 25.585938 L 235.976562 21.425781 " fill-opacity="1" fill-rule="nonzero"/><path fill="#73d1de" d="M 79.449219 19.035156 C 75.742188 19.035156 72.738281 22.042969 72.738281 25.75 C 72.738281 29.457031 75.742188 32.460938 79.449219 32.460938 C 83.15625 32.460938 86.164062 29.457031 86.164062 25.75 C 86.164062 22.042969 83.15625 19.035156 79.449219 19.035156 M 79.449219 30.417969 C 76.871094 30.417969 74.78125 28.328125 74.78125 25.75 C 74.78125 23.167969 76.871094 21.078125 79.449219 21.078125 C 82.027344 21.078125 84.121094 23.167969 84.121094 25.75 C 84.121094 28.328125 82.027344 30.417969 79.449219 30.417969 " fill-opacity="1" fill-rule="nonzero"/><path fill="#83d5d4" d="M 79.449219 21.078125 C 76.871094 21.078125 74.78125 23.171875 74.78125 25.75 C 74.78125 28.328125 76.871094 30.417969 79.449219 30.417969 C 82.027344 30.417969 84.121094 28.328125 84.121094 25.75 C 84.121094 23.171875 82.027344 21.078125 79.449219 21.078125 M 79.449219 28.527344 C 77.917969 28.527344 76.671875 27.28125 76.671875 25.75 C 76.671875 24.214844 77.917969 22.96875 79.449219 22.96875 C 80.984375 22.96875 82.230469 24.214844 82.230469 25.75 C 82.230469 27.28125 80.984375 28.527344 79.449219 28.527344 " fill-opacity="1" fill-rule="nonzero"/><path fill="#e7f7fa" d="M 79.449219 22.972656 C 77.917969 22.972656 76.671875 24.214844 76.671875 25.75 C 76.671875 27.285156 77.917969 28.527344 79.449219 28.527344 C 80.984375 28.527344 82.230469 27.285156 82.230469 25.75 C 82.230469 24.214844 80.984375 22.972656 79.449219 22.972656 " fill-opacity="1" fill-rule="nonzero"/><path fill="#3891ba" d="M 213.414062 141.050781 C 209.703125 141.050781 206.699219 144.054688 206.699219 147.765625 C 206.699219 151.023438 209.019531 153.738281 212.097656 154.347656 C 213.265625 154.261719 214.414062 154.191406 215.527344 154.136719 C 218.199219 153.253906 220.125 150.734375 220.125 147.765625 C 220.125 144.054688 217.121094 141.050781 213.414062 141.050781 M 213.414062 152.433594 C 210.835938 152.433594 208.742188 150.34375 208.742188 147.765625 C 208.742188 145.1875 210.835938 143.09375 213.414062 143.09375 C 215.992188 143.09375 218.082031 145.1875 218.082031 147.765625 C 218.082031 150.34375 215.992188 152.433594 213.414062 152.433594 " fill-opacity="1" fill-rule="nonzero"/><path fill="#236c75" d="M 215.527344 154.136719 C 214.414062 154.191406 213.265625 154.261719 212.097656 154.347656 C 212.523438 154.433594 212.960938 154.476562 213.414062 154.476562 C 214.152344 154.476562 214.863281 154.359375 215.527344 154.136719 " fill-opacity="1" fill-rule="nonzero"/><path fill="#46c2ca" d="M 213.414062 143.09375 C 210.835938 143.09375 208.742188 145.1875 208.742188 147.765625 C 208.742188 150.34375 210.835938 152.433594 213.414062 152.433594 C 215.992188 152.433594 218.082031 150.34375 218.082031 147.765625 C 218.082031 145.1875 215.992188 143.09375 213.414062 143.09375 M 213.414062 150.542969 C 211.878906 150.542969 210.632812 149.300781 210.632812 147.765625 C 210.632812 146.230469 211.878906 144.988281 213.414062 144.988281 C 214.949219 144.988281 216.191406 146.230469 216.191406 147.765625 C 216.191406 149.300781 214.949219 150.542969 213.414062 150.542969 " fill-opacity="1" fill-rule="nonzero"/><path fill="#dbf3f5" d="M 213.414062 144.988281 C 211.878906 144.988281 210.632812 146.230469 210.632812 147.765625 C 210.632812 149.300781 211.878906 150.542969 213.414062 150.542969 C 214.949219 150.542969 216.191406 149.300781 216.191406 147.765625 C 216.191406 146.230469 214.949219 144.988281 213.414062 144.988281 " fill-opacity="1" fill-rule="nonzero"/><path fill="#5bb4e0" d="M 228.566406 208.347656 C 224.855469 208.347656 221.851562 211.355469 221.851562 215.0625 C 221.851562 218.769531 224.855469 221.777344 228.566406 221.777344 C 232.269531 221.777344 235.277344 218.769531 235.277344 215.0625 C 235.277344 211.355469 232.269531 208.347656 228.566406 208.347656 M 228.566406 219.734375 C 225.988281 219.734375 223.894531 217.640625 223.894531 215.0625 C 223.894531 212.484375 225.988281 210.390625 228.566406 210.390625 C 231.144531 210.390625 233.234375 212.484375 233.234375 215.0625 C 233.234375 217.640625 231.144531 219.734375 228.566406 219.734375 " fill-opacity="1" fill-rule="nonzero"/><path fill="#6bcfe4" d="M 228.566406 210.390625 C 225.988281 210.390625 223.894531 212.484375 223.894531 215.0625 C 223.894531 217.640625 225.988281 219.734375 228.566406 219.734375 C 231.144531 219.734375 233.234375 217.640625 233.234375 215.0625 C 233.234375 212.484375 231.144531 210.390625 228.566406 210.390625 M 228.566406 217.839844 C 227.03125 217.839844 225.785156 216.59375 225.785156 215.0625 C 225.785156 213.527344 227.03125 212.285156 228.566406 212.285156 C 230.097656 212.285156 231.339844 213.527344 231.339844 215.0625 C 231.339844 216.59375 230.097656 217.839844 228.566406 217.839844 " fill-opacity="1" fill-rule="nonzero"/><path fill="#e2f6fd" d="M 228.566406 212.285156 C 227.03125 212.285156 225.785156 213.527344 225.785156 215.0625 C 225.785156 216.59375 227.03125 217.839844 228.566406 217.839844 C 230.097656 217.839844 231.339844 216.59375 231.339844 215.0625 C 231.339844 213.527344 230.097656 212.285156 228.566406 212.285156 " fill-opacity="1" fill-rule="nonzero"/><path fill="#73d1de" d="M 71.433594 233.078125 L 70.089844 234.757812 C 70.472656 235.433594 70.691406 236.21875 70.691406 237.050781 C 70.691406 239.628906 68.601562 241.722656 66.023438 241.722656 C 65.558594 241.722656 65.109375 241.652344 64.683594 241.527344 L 63.339844 243.207031 C 64.164062 243.566406 65.070312 243.765625 66.023438 243.765625 C 69.730469 243.765625 72.734375 240.761719 72.734375 237.050781 C 72.734375 235.566406 72.253906 234.191406 71.433594 233.078125 " fill-opacity="1" fill-rule="nonzero"/><path fill="#5bb4e0" d="M 66.023438 230.339844 C 62.316406 230.339844 59.308594 233.34375 59.308594 237.050781 C 59.308594 239.804688 60.96875 242.171875 63.339844 243.207031 L 64.683594 241.527344 C 62.757812 240.949219 61.351562 239.164062 61.351562 237.050781 C 61.351562 234.472656 63.445312 232.382812 66.023438 232.382812 C 67.769531 232.382812 69.289062 233.339844 70.089844 234.757812 L 71.433594 233.078125 C 70.210938 231.417969 68.242188 230.339844 66.023438 230.339844 " fill-opacity="1" fill-rule="nonzero"/><path fill="#83d5d4" d="M 70.089844 234.757812 L 68.734375 236.453125 C 68.777344 236.648438 68.800781 236.847656 68.800781 237.050781 C 68.800781 238.582031 67.566406 239.820312 66.039062 239.828125 L 64.683594 241.527344 C 65.109375 241.652344 65.558594 241.722656 66.023438 241.722656 C 68.601562 241.722656 70.691406 239.628906 70.691406 237.050781 C 70.691406 236.21875 70.472656 235.433594 70.089844 234.757812 " fill-opacity="1" fill-rule="nonzero"/><path fill="#6bcfe4" d="M 66.023438 232.382812 C 63.445312 232.382812 61.351562 234.472656 61.351562 237.050781 C 61.351562 239.164062 62.757812 240.949219 64.683594 241.527344 L 66.039062 239.828125 C 66.035156 239.828125 66.027344 239.828125 66.023438 239.828125 C 64.488281 239.828125 63.246094 238.585938 63.246094 237.050781 C 63.246094 235.515625 64.488281 234.273438 66.023438 234.273438 C 67.351562 234.273438 68.464844 235.207031 68.734375 236.453125 L 70.089844 234.757812 C 69.289062 233.339844 67.769531 232.382812 66.023438 232.382812 " fill-opacity="1" fill-rule="nonzero"/><path fill="#e7f7fa" d="M 68.734375 236.453125 L 66.039062 239.828125 C 67.566406 239.820312 68.800781 238.582031 68.800781 237.050781 C 68.800781 236.847656 68.777344 236.648438 68.734375 236.453125 " fill-opacity="1" fill-rule="nonzero"/><path fill="#e2f6fd" d="M 66.023438 234.273438 C 64.488281 234.273438 63.246094 235.515625 63.246094 237.050781 C 63.246094 238.585938 64.488281 239.828125 66.023438 239.828125 C 66.027344 239.828125 66.035156 239.828125 66.039062 239.828125 L 68.734375 236.453125 C 68.464844 235.207031 67.351562 234.273438 66.023438 234.273438 " fill-opacity="1" fill-rule="nonzero"/><path fill="#9adee8" d="M 158.777344 291.808594 C 158.964844 292.3125 159.0625 292.859375 159.0625 293.425781 C 159.0625 296.007812 156.972656 298.097656 154.394531 298.097656 C 151.816406 298.097656 149.726562 296.007812 149.726562 293.425781 C 149.726562 293.214844 149.738281 293.003906 149.769531 292.796875 L 147.683594 293.402344 C 147.683594 293.410156 147.683594 293.421875 147.683594 293.425781 C 147.683594 297.136719 150.6875 300.140625 154.394531 300.140625 C 158.101562 300.140625 161.109375 297.136719 161.109375 293.425781 C 161.109375 292.910156 161.050781 292.40625 160.9375 291.921875 L 158.777344 291.808594 " fill-opacity="1" fill-rule="nonzero"/><path fill="#236c75" d="M 154.394531 286.714844 C 150.695312 286.714844 147.695312 289.707031 147.683594 293.402344 L 149.769531 292.796875 C 150.074219 290.515625 152.03125 288.757812 154.394531 288.757812 C 156.40625 288.757812 158.117188 290.027344 158.777344 291.808594 L 160.9375 291.921875 C 160.253906 288.9375 157.585938 286.714844 154.394531 286.714844 " fill-opacity="1" fill-rule="nonzero"/><path fill="#a6e1de" d="M 156.566406 291.691406 C 156.945312 292.167969 157.171875 292.769531 157.171875 293.425781 C 157.171875 294.960938 155.929688 296.207031 154.394531 296.207031 C 152.859375 296.207031 151.617188 294.960938 151.617188 293.425781 C 151.617188 292.976562 151.726562 292.546875 151.917969 292.171875 L 149.769531 292.796875 C 149.738281 293.003906 149.726562 293.214844 149.726562 293.425781 C 149.726562 296.007812 151.816406 298.097656 154.394531 298.097656 C 156.972656 298.097656 159.0625 296.007812 159.0625 293.425781 C 159.0625 292.859375 158.964844 292.3125 158.777344 291.808594 L 156.566406 291.691406 " fill-opacity="1" fill-rule="nonzero"/><path fill="#35ba9d" d="M 154.394531 288.757812 C 152.03125 288.757812 150.074219 290.515625 149.769531 292.796875 L 151.917969 292.171875 C 152.375 291.265625 153.3125 290.648438 154.394531 290.648438 C 155.273438 290.648438 156.054688 291.054688 156.566406 291.691406 L 158.777344 291.808594 C 158.117188 290.027344 156.40625 288.757812 154.394531 288.757812 " fill-opacity="1" fill-rule="nonzero"/><path fill="#eef9fd" d="M 154.011719 291.558594 L 151.917969 292.171875 C 151.726562 292.546875 151.617188 292.976562 151.617188 293.425781 C 151.617188 294.960938 152.859375 296.207031 154.394531 296.207031 C 155.929688 296.207031 157.171875 294.960938 157.171875 293.425781 C 157.171875 292.769531 156.945312 292.167969 156.566406 291.691406 L 154.011719 291.558594 " fill-opacity="1" fill-rule="nonzero"/><path fill="#d7f1e7" d="M 154.394531 290.648438 C 153.3125 290.648438 152.375 291.265625 151.917969 292.171875 L 154.011719 291.558594 L 156.566406 291.691406 C 156.054688 291.054688 155.273438 290.648438 154.394531 290.648438 " fill-opacity="1" fill-rule="nonzero"/><path fill="#73d1de" d="M 72.734375 311.0625 C 71.308594 311.0625 69.984375 311.507812 68.898438 312.269531 L 70.453125 313.699219 C 71.128906 313.324219 71.90625 313.105469 72.734375 313.105469 C 75.316406 313.105469 77.40625 315.195312 77.40625 317.773438 C 77.40625 318.464844 77.253906 319.121094 76.984375 319.710938 L 78.542969 321.148438 C 79.121094 320.15625 79.449219 319.003906 79.449219 317.773438 C 79.449219 314.070312 76.445312 311.0625 72.734375 311.0625 " fill-opacity="1" fill-rule="nonzero"/><path fill="#5bb4e0" d="M 68.898438 312.269531 C 67.160156 313.480469 66.023438 315.496094 66.023438 317.773438 C 66.023438 321.484375 69.027344 324.488281 72.734375 324.488281 C 75.214844 324.488281 77.382812 323.144531 78.542969 321.148438 L 76.984375 319.710938 C 76.25 321.324219 74.625 322.445312 72.734375 322.445312 C 70.15625 322.445312 68.066406 320.355469 68.066406 317.773438 C 68.066406 316.027344 69.03125 314.5 70.453125 313.699219 L 68.898438 312.269531 " fill-opacity="1" fill-rule="nonzero"/><path fill="#83d5d4" d="M 72.734375 313.105469 C 71.90625 313.105469 71.128906 313.324219 70.453125 313.699219 L 71.976562 315.101562 C 72.21875 315.035156 72.472656 315 72.734375 315 C 74.269531 315 75.515625 316.242188 75.515625 317.773438 C 75.515625 317.957031 75.496094 318.136719 75.460938 318.3125 L 76.984375 319.710938 C 77.253906 319.121094 77.40625 318.464844 77.40625 317.773438 C 77.40625 315.195312 75.316406 313.105469 72.734375 313.105469 " fill-opacity="1" fill-rule="nonzero"/><path fill="#6bcfe4" d="M 70.453125 313.699219 C 69.03125 314.5 68.066406 316.027344 68.066406 317.773438 C 68.066406 320.355469 70.15625 322.445312 72.734375 322.445312 C 74.625 322.445312 76.25 321.324219 76.984375 319.710938 L 75.460938 318.3125 C 75.214844 319.589844 74.089844 320.554688 72.734375 320.554688 C 71.203125 320.554688 69.957031 319.308594 69.957031 317.773438 C 69.957031 316.507812 70.8125 315.433594 71.976562 315.101562 L 70.453125 313.699219 " fill-opacity="1" fill-rule="nonzero"/><path fill="#e7f7fa" d="M 72.734375 315 C 72.472656 315 72.21875 315.035156 71.976562 315.101562 L 75.460938 318.3125 C 75.496094 318.136719 75.515625 317.957031 75.515625 317.773438 C 75.515625 316.242188 74.269531 315 72.734375 315 " fill-opacity="1" fill-rule="nonzero"/><path fill="#e2f6fd" d="M 71.976562 315.101562 C 70.8125 315.433594 69.957031 316.507812 69.957031 317.773438 C 69.957031 319.308594 71.203125 320.554688 72.734375 320.554688 C 74.089844 320.554688 75.214844 319.589844 75.460938 318.3125 L 71.976562 315.101562 " fill-opacity="1" fill-rule="nonzero"/><path fill="#ccebbb" d="M 144.289062 374.109375 L 137.644531 374.109375 C 138.625 374.667969 139.757812 374.988281 140.96875 374.988281 C 142.175781 374.988281 143.308594 374.667969 144.289062 374.109375 " fill-opacity="1" fill-rule="nonzero"/><path fill="#73d1de" d="M 140.96875 361.5625 C 139.847656 361.5625 138.796875 361.832031 137.871094 362.316406 L 142.515625 363.085938 L 144.730469 362.710938 C 143.65625 361.984375 142.363281 361.5625 140.96875 361.5625 " fill-opacity="1" fill-rule="nonzero"/><path fill="#3891ba" d="M 137.871094 362.316406 C 135.722656 363.433594 134.253906 365.683594 134.253906 368.273438 C 134.253906 370.773438 135.621094 372.953125 137.644531 374.109375 L 144.289062 374.109375 C 146.316406 372.953125 147.683594 370.773438 147.683594 368.273438 C 147.683594 365.960938 146.511719 363.917969 144.730469 362.710938 L 142.515625 363.085938 L 137.871094 362.316406 M 140.96875 372.945312 C 138.390625 372.945312 136.296875 370.851562 136.296875 368.273438 C 136.296875 365.695312 138.390625 363.605469 140.96875 363.605469 C 143.546875 363.605469 145.636719 365.695312 145.636719 368.273438 C 145.636719 370.851562 143.546875 372.945312 140.96875 372.945312 " fill-opacity="1" fill-rule="nonzero"/><path fill="#46c2ca" d="M 140.96875 363.605469 C 138.390625 363.605469 136.296875 365.695312 136.296875 368.273438 C 136.296875 370.851562 138.390625 372.945312 140.96875 372.945312 C 143.546875 372.945312 145.636719 370.851562 145.636719 368.273438 C 145.636719 365.695312 143.546875 363.605469 140.96875 363.605469 M 140.96875 371.050781 C 139.433594 371.050781 138.1875 369.808594 138.1875 368.273438 C 138.1875 366.738281 139.433594 365.496094 140.96875 365.496094 C 142.5 365.496094 143.746094 366.738281 143.746094 368.273438 C 143.746094 369.808594 142.5 371.050781 140.96875 371.050781 " fill-opacity="1" fill-rule="nonzero"/><path fill="#dbf3f5" d="M 140.96875 365.496094 C 139.433594 365.496094 138.1875 366.738281 138.1875 368.273438 C 138.1875 369.808594 139.433594 371.050781 140.96875 371.050781 C 142.5 371.050781 143.746094 369.808594 143.746094 368.273438 C 143.746094 366.738281 142.5 365.496094 140.96875 365.496094 " fill-opacity="1" fill-rule="nonzero"/><path fill="#73d1de" d="M 219.070312 296.207031 C 215.359375 296.207031 212.355469 299.210938 212.355469 302.917969 C 212.355469 306.585938 215.296875 309.566406 218.949219 309.632812 L 219.15625 309.4375 L 219.449219 307.574219 C 219.324219 307.582031 219.195312 307.589844 219.070312 307.589844 C 216.492188 307.589844 214.398438 305.496094 214.398438 302.917969 C 214.398438 300.339844 216.492188 298.25 219.070312 298.25 C 219.695312 298.25 220.296875 298.375 220.84375 298.597656 L 221.164062 296.539062 C 220.507812 296.320312 219.800781 296.207031 219.070312 296.207031 " fill-opacity="1" fill-rule="nonzero"/><path fill="#5bb4e0" d="M 221.164062 296.539062 L 220.84375 298.597656 C 222.542969 299.296875 223.738281 300.96875 223.738281 302.917969 C 223.738281 305.371094 221.851562 307.378906 219.449219 307.574219 L 219.15625 309.4375 L 218.949219 309.632812 C 218.988281 309.632812 219.027344 309.632812 219.070312 309.632812 C 222.777344 309.632812 225.785156 306.625 225.785156 302.917969 C 225.785156 299.941406 223.847656 297.417969 221.164062 296.539062 " fill-opacity="1" fill-rule="nonzero"/><path fill="#83d5d4" d="M 219.070312 298.25 C 216.492188 298.25 214.398438 300.339844 214.398438 302.917969 C 214.398438 305.496094 216.492188 307.589844 219.070312 307.589844 C 219.195312 307.589844 219.324219 307.582031 219.449219 307.574219 L 219.753906 305.613281 C 219.535156 305.667969 219.304688 305.695312 219.070312 305.695312 C 217.535156 305.695312 216.289062 304.453125 216.289062 302.917969 C 216.289062 301.386719 217.535156 300.140625 219.070312 300.140625 C 219.609375 300.140625 220.113281 300.292969 220.539062 300.5625 L 220.84375 298.597656 C 220.296875 298.375 219.695312 298.25 219.070312 298.25 " fill-opacity="1" fill-rule="nonzero"/><path fill="#6bcfe4" d="M 220.84375 298.597656 L 220.539062 300.5625 C 221.324219 301.050781 221.847656 301.925781 221.847656 302.917969 C 221.847656 304.21875 220.957031 305.308594 219.753906 305.613281 L 219.449219 307.574219 C 221.851562 307.378906 223.738281 305.371094 223.738281 302.917969 C 223.738281 300.96875 222.542969 299.296875 220.84375 298.597656 " fill-opacity="1" fill-rule="nonzero"/><path fill="#e7f7fa" d="M 219.070312 300.140625 C 217.535156 300.140625 216.289062 301.386719 216.289062 302.917969 C 216.289062 304.453125 217.535156 305.695312 219.070312 305.695312 C 219.304688 305.695312 219.535156 305.667969 219.753906 305.613281 L 220.539062 300.5625 C 220.113281 300.292969 219.609375 300.140625 219.070312 300.140625 " fill-opacity="1" fill-rule="nonzero"/><path fill="#e2f6fd" d="M 220.539062 300.5625 L 219.753906 305.613281 C 220.957031 305.308594 221.847656 304.21875 221.847656 302.917969 C 221.847656 301.925781 221.324219 301.050781 220.539062 300.5625 " fill-opacity="1" fill-rule="nonzero"/><path fill="#5bb4e0" d="M 41.703125 108.988281 C 37.996094 108.988281 34.988281 111.996094 34.988281 115.703125 C 34.988281 118.347656 36.515625 120.632812 38.738281 121.726562 L 40.742188 120.273438 C 38.625 119.832031 37.035156 117.953125 37.035156 115.703125 C 37.035156 113.125 39.125 111.035156 41.703125 111.035156 C 44.28125 111.035156 46.371094 113.125 46.371094 115.703125 C 46.371094 115.875 46.363281 116.046875 46.34375 116.210938 L 48.351562 114.753906 C 47.890625 111.496094 45.089844 108.988281 41.703125 108.988281 " fill-opacity="1" fill-rule="nonzero"/><path fill="#236c75" d="M 48.351562 114.753906 L 46.34375 116.210938 C 46.09375 118.550781 44.109375 120.375 41.703125 120.375 C 41.375 120.375 41.050781 120.339844 40.742188 120.273438 L 38.738281 121.726562 C 39.632812 122.167969 40.636719 122.417969 41.703125 122.417969 C 45.410156 122.417969 48.417969 119.410156 48.417969 115.703125 C 48.417969 115.382812 48.394531 115.066406 48.351562 114.753906 " fill-opacity="1" fill-rule="nonzero"/><path fill="#6bcfe4" d="M 41.703125 111.035156 C 39.125 111.035156 37.035156 113.125 37.035156 115.703125 C 37.035156 117.953125 38.625 119.832031 40.742188 120.273438 L 46.34375 116.210938 C 46.363281 116.046875 46.371094 115.875 46.371094 115.703125 C 46.371094 113.125 44.28125 111.035156 41.703125 111.035156 M 41.703125 118.480469 C 40.167969 118.480469 38.925781 117.238281 38.925781 115.703125 C 38.925781 114.167969 40.167969 112.925781 41.703125 112.925781 C 43.234375 112.925781 44.480469 114.167969 44.480469 115.703125 C 44.480469 117.238281 43.234375 118.480469 41.703125 118.480469 " fill-opacity="1" fill-rule="nonzero"/><path fill="#35ba9d" d="M 46.34375 116.210938 L 40.742188 120.273438 C 41.050781 120.339844 41.375 120.375 41.703125 120.375 C 44.109375 120.375 46.09375 118.550781 46.34375 116.210938 " fill-opacity="1" fill-rule="nonzero"/><path fill="#e2f6fd" d="M 41.703125 112.925781 C 40.167969 112.925781 38.925781 114.167969 38.925781 115.703125 C 38.925781 117.238281 40.167969 118.480469 41.703125 118.480469 C 43.234375 118.480469 44.480469 117.238281 44.480469 115.703125 C 44.480469 114.167969 43.234375 112.925781 41.703125 112.925781 " fill-opacity="1" fill-rule="nonzero"/><path fill="#73d1de" d="M 118.414062 174.265625 L 116.808594 176.277344 C 116.820312 176.417969 116.828125 176.558594 116.828125 176.699219 C 116.828125 179.070312 115.0625 181.027344 112.773438 181.328125 L 111.164062 183.34375 C 111.488281 183.386719 111.820312 183.414062 112.15625 183.414062 C 115.867188 183.414062 118.871094 180.410156 118.871094 176.699219 C 118.871094 175.84375 118.710938 175.019531 118.414062 174.265625 " fill-opacity="1" fill-rule="nonzero"/><path fill="#5bb4e0" d="M 112.15625 169.988281 C 109.261719 169.988281 106.796875 171.820312 105.855469 174.386719 L 108.378906 173.957031 C 109.230469 172.789062 110.605469 172.03125 112.15625 172.03125 C 114.59375 172.03125 116.59375 173.894531 116.808594 176.277344 L 118.414062 174.265625 C 117.441406 171.761719 115.007812 169.988281 112.15625 169.988281 M 108.078125 178.976562 L 106.625 180.5 C 107.65625 182.003906 109.285156 183.0625 111.164062 183.34375 L 112.773438 181.328125 C 112.570312 181.355469 112.367188 181.371094 112.15625 181.371094 C 110.40625 181.371094 108.878906 180.402344 108.078125 178.976562 " fill-opacity="1" fill-rule="nonzero"/><path fill="#73d1de" d="M 108.378906 173.957031 L 105.855469 174.386719 C 105.589844 175.109375 105.445312 175.886719 105.445312 176.699219 C 105.445312 178.113281 105.878906 179.421875 106.625 180.5 L 108.078125 178.976562 C 107.703125 178.304688 107.488281 177.527344 107.488281 176.699219 C 107.488281 175.675781 107.820312 174.726562 108.378906 173.957031 " fill-opacity="1" fill-rule="nonzero"/><path fill="#83d5d4" d="M 116.808594 176.277344 L 112.773438 181.328125 C 115.0625 181.027344 116.828125 179.070312 116.828125 176.699219 C 116.828125 176.558594 116.820312 176.417969 116.808594 176.277344 " fill-opacity="1" fill-rule="nonzero"/><path fill="#6bcfe4" d="M 112.15625 172.03125 C 110.605469 172.03125 109.230469 172.789062 108.378906 173.957031 L 113.734375 173.042969 L 112.820312 174 C 114.035156 174.300781 114.9375 175.394531 114.9375 176.699219 C 114.9375 178.234375 113.691406 179.480469 112.15625 179.480469 C 110.898438 179.480469 109.835938 178.640625 109.496094 177.492188 L 108.078125 178.976562 C 108.878906 180.402344 110.40625 181.371094 112.15625 181.371094 C 112.367188 181.371094 112.570312 181.355469 112.773438 181.328125 L 116.808594 176.277344 C 116.59375 173.894531 114.59375 172.03125 112.15625 172.03125 " fill-opacity="1" fill-rule="nonzero"/><path fill="#83d5d4" d="M 113.734375 173.042969 L 108.378906 173.957031 C 107.820312 174.726562 107.488281 175.675781 107.488281 176.699219 C 107.488281 177.527344 107.703125 178.304688 108.078125 178.976562 L 109.496094 177.492188 C 109.421875 177.238281 109.378906 176.976562 109.378906 176.699219 C 109.378906 175.167969 110.625 173.925781 112.15625 173.925781 C 112.386719 173.925781 112.609375 173.949219 112.820312 174 L 113.734375 173.042969 " fill-opacity="1" fill-rule="nonzero"/><path fill="#e2f6fd" d="M 112.820312 174 L 109.496094 177.492188 C 109.835938 178.640625 110.898438 179.480469 112.15625 179.480469 C 113.691406 179.480469 114.9375 178.234375 114.9375 176.699219 C 114.9375 175.394531 114.035156 174.300781 112.820312 174 " fill-opacity="1" fill-rule="nonzero"/><path fill="#e7f7fa" d="M 112.15625 173.925781 C 110.625 173.925781 109.378906 175.167969 109.378906 176.699219 C 109.378906 176.976562 109.421875 177.238281 109.496094 177.492188 L 112.820312 174 C 112.609375 173.949219 112.386719 173.925781 112.15625 173.925781 " fill-opacity="1" fill-rule="nonzero"/><path fill="#9adee8" d="M 173.757812 41.34375 C 170.050781 41.34375 167.046875 44.351562 167.046875 48.054688 C 167.046875 51.765625 170.050781 54.769531 173.757812 54.769531 C 177.464844 54.769531 180.46875 51.765625 180.46875 48.054688 C 180.46875 44.351562 177.464844 41.34375 173.757812 41.34375 M 173.757812 52.726562 C 171.179688 52.726562 169.085938 50.636719 169.085938 48.054688 C 169.085938 45.476562 171.179688 43.386719 173.757812 43.386719 C 176.335938 43.386719 178.425781 45.476562 178.425781 48.054688 C 178.425781 50.636719 176.335938 52.726562 173.757812 52.726562 " fill-opacity="1" fill-rule="nonzero"/><path fill="#a6e1de" d="M 173.757812 43.386719 C 171.179688 43.386719 169.085938 45.480469 169.085938 48.058594 C 169.085938 50.636719 171.179688 52.726562 173.757812 52.726562 C 176.335938 52.726562 178.425781 50.636719 178.425781 48.058594 C 178.425781 45.480469 176.335938 43.386719 173.757812 43.386719 M 173.757812 50.835938 C 172.222656 50.835938 170.980469 49.59375 170.980469 48.058594 C 170.980469 46.523438 172.222656 45.28125 173.757812 45.28125 C 175.289062 45.28125 176.535156 46.523438 176.535156 48.058594 C 176.535156 49.59375 175.289062 50.835938 173.757812 50.835938 " fill-opacity="1" fill-rule="nonzero"/><path fill="#eef9fd" d="M 173.757812 45.277344 C 172.222656 45.277344 170.980469 46.523438 170.980469 48.054688 C 170.980469 49.589844 172.222656 50.832031 173.757812 50.832031 C 175.292969 50.832031 176.535156 49.589844 176.535156 48.054688 C 176.535156 46.523438 175.292969 45.277344 173.757812 45.277344 " fill-opacity="1" fill-rule="nonzero"/><path fill="#9adee8" d="M 129.914062 102.277344 C 126.207031 102.277344 123.203125 105.28125 123.203125 108.988281 C 123.203125 112.699219 126.207031 115.703125 129.914062 115.703125 C 133.625 115.703125 136.628906 112.699219 136.628906 108.988281 C 136.628906 105.28125 133.625 102.277344 129.914062 102.277344 M 129.914062 113.660156 C 127.335938 113.660156 125.246094 111.570312 125.246094 108.988281 C 125.246094 106.410156 127.335938 104.320312 129.914062 104.320312 C 132.492188 104.320312 134.582031 106.410156 134.582031 108.988281 C 134.582031 111.570312 132.492188 113.660156 129.914062 113.660156 " fill-opacity="1" fill-rule="nonzero"/><path fill="#a6e1de" d="M 129.914062 104.320312 C 127.335938 104.320312 125.246094 106.410156 125.246094 108.988281 C 125.246094 111.570312 127.335938 113.660156 129.914062 113.660156 C 132.492188 113.660156 134.582031 111.570312 134.582031 108.988281 C 134.582031 106.410156 132.492188 104.320312 129.914062 104.320312 M 129.914062 111.769531 C 128.382812 111.769531 127.136719 110.523438 127.136719 108.988281 C 127.136719 107.453125 128.382812 106.210938 129.914062 106.210938 C 131.449219 106.210938 132.695312 107.453125 132.695312 108.988281 C 132.695312 110.523438 131.449219 111.769531 129.914062 111.769531 " fill-opacity="1" fill-rule="nonzero"/><path fill="#eef9fd" d="M 129.914062 106.210938 C 128.382812 106.210938 127.136719 107.453125 127.136719 108.988281 C 127.136719 110.523438 128.382812 111.769531 129.914062 111.769531 C 131.449219 111.769531 132.695312 110.523438 132.695312 108.988281 C 132.695312 107.453125 131.449219 106.210938 129.914062 106.210938 " fill-opacity="1" fill-rule="nonzero"/><path fill="#ffffff" d="M 237.378906 23.222656 L 173.722656 47.511719 L 78.367188 24.960938 L 129.035156 108.535156 L 41.082031 115.230469 L 65.558594 237.367188 L 153.164062 293.253906 L 71.609375 317.570312 L 140.984375 370.257812 L 219.703125 302.964844 L 229.089844 215.03125 L 213.917969 147.652344 L 212.90625 147.878906 L 228.039062 215.089844 L 218.71875 302.449219 L 140.949219 368.929688 L 73.863281 317.980469 L 155.628906 293.601562 L 66.488281 236.730469 L 42.324219 116.175781 L 130.792969 109.441406 L 80.535156 26.535156 L 173.796875 48.597656 L 237.746094 24.191406 L 237.378906 23.222656 " fill-opacity="1" fill-rule="nonzero"/><path fill="#ffffff" d="M 173.335938 47.753906 L 129.492188 108.691406 L 130.335938 109.292969 L 174.179688 48.359375 " fill-opacity="1" fill-rule="nonzero"/><path fill="#ffffff" d="M 111.988281 177.1875 L 225.910156 216.769531 L 226.246094 215.789062 L 112.328125 176.210938 " fill-opacity="1" fill-rule="nonzero"/><path fill="#ffffff" d="M 65.507812 237.09375 L 72.21875 317.820312 L 73.253906 317.734375 L 66.539062 237.007812 " fill-opacity="1" fill-rule="nonzero"/><path fill="#ffffff" d="M 153.886719 294.417969 L 140.457031 368.179688 L 141.476562 368.367188 L 154.902344 294.605469 " fill-opacity="1" fill-rule="nonzero"/><path fill="#ffffff" d="M 227.027344 214.710938 L 154.015625 293.074219 L 154.773438 293.78125 L 227.785156 215.414062 " fill-opacity="1" fill-rule="nonzero"/><path fill="#ffffff" d="M 110.628906 177.835938 L 153.910156 293.609375 L 154.878906 293.246094 L 111.597656 177.472656 " fill-opacity="1" fill-rule="nonzero"/><path fill="#ffffff" d="M 66.433594 237.367188 L 112.570312 177.015625 L 111.746094 176.386719 L 65.609375 236.738281 " fill-opacity="1" fill-rule="nonzero"/><path fill="#ffffff" d="M 129.695312 109.460938 L 213.195312 148.234375 L 213.628906 147.292969 L 130.132812 108.523438 " fill-opacity="1" fill-rule="nonzero"/><path fill="#ffffff" d="M 41.359375 116.09375 L 110.769531 177.089844 L 111.453125 176.3125 L 42.042969 115.3125 " fill-opacity="1" fill-rule="nonzero"/><path fill="#ffffff" d="M 78.972656 25.550781 L 41.226562 115.503906 L 42.179688 115.90625 L 79.925781 25.949219 " fill-opacity="1" fill-rule="nonzero"/><path fill="#ffffff" d="M 174.3125 48.820312 L 211.921875 148.234375 L 212.890625 147.867188 L 175.277344 48.453125 " fill-opacity="1" fill-rule="nonzero"/><path fill="#ffffff" d="M 237.054688 23.605469 L 211.894531 147.949219 L 212.910156 148.15625 L 238.066406 23.808594 " fill-opacity="1" fill-rule="nonzero"/><path fill="#ffffff" d="M 111.253906 177.199219 L 212.546875 148.550781 L 212.261719 147.554688 L 110.972656 176.203125 " fill-opacity="1" fill-rule="nonzero"/><path fill="#ffffff" d="M 129.414062 108.859375 L 111.65625 176.570312 L 112.660156 176.832031 L 130.414062 109.121094 " fill-opacity="1" fill-rule="nonzero"/><path fill="#ffffff" d="M 154.328125 295.023438 L 218.015625 303.433594 L 218.148438 302.40625 L 154.460938 293.996094 " fill-opacity="1" fill-rule="nonzero"/></svg>